<svg id="Ebene_1" data-name="Ebene 1" xmlns="http://www.w3.org/2000/svg" xmlns:xlink="http://www.w3.org/1999/xlink" viewBox="0 0 418.67 425.79">
  <defs>
    <symbol id="Neues_Symbol" data-name="Neues Symbol" viewBox="0 0 418.67 425.79">
      <rect x="62.19" y="163.58" width="98.73" height="16.46" style="fill: #fff"/>
      <path d="M296.46,218.8a81.19,73.19,0,0,1-81.2,81.2c-107.7-4.28-107.67-158.13,0-162.39A81.19,81.19,0,0,1,296.46,218.8Z" style="fill: #fff"/>
      <rect x="62.19" y="259.17" width="100.17" height="17.46" style="fill: #fff"/>
      <rect x="270.36" y="259.17" width="95.89" height="17.46" style="fill: #fff"/>
      <rect x="274.96" y="164.04" width="91.29" height="16.51" style="fill: #fff"/>
      <rect x="286.79" y="146.22" width="28.6" height="23.61" style="fill: #fff"/>
      <rect x="175.56" y="125.73" width="72.55" height="25.59" style="fill: #fff"/>
      <polygon points="147.29 169.01 175.67 125.73 193.26 137.27 164.89 180.55 147.29 169.01" style="fill: #fff"/>
      <polygon points="276.74 188.7 235.8 135.18 248.15 125.73 289.09 179.25 276.74 188.7" style="fill: #fff"/>
      <g>
        <path d="M10.5,151.86c-3,.26-6.38,1.34-8.33,8.61-1.58,6.07.36,8.9,2.5,9.48,2.88.79,5.05-2.25,8.44-7.77C18,154.26,21.16,151.58,25,153c4.22,1.71,5.42,8.76,3.23,17.5a60.66,60.66,0,0,1-3.76,10.31,41.09,41.09,0,0,1-6.67.49l.12-2.37c3.12-.81,7.32-3.08,9.11-10.19,1.27-4.9.14-8.52-2.5-9.48-3.11-1.1-5.27,1.21-8.89,7-4.27,6.94-7.12,11.11-11,10.16-3.7-.84-6.13-7.84-3.37-18.14a65.49,65.49,0,0,1,3.73-9.78c1.55.26,3.25.57,6.06,1Z" style="fill: #1d1d1b"/>
        <path d="M36.7,142.28l-1.09-.52c1.37-4,1.39-4.49-1.24-5.81l-7.94-4c-2.38-1.2-2.65-1.12-4.7,2.67l-.93-.45c1.09-3.64,2-7,2.6-10.13l4.79,2.59q4.17,2.27,8.36,4.51c2.6,1.4,3,1,5.06-2.61l1,.59Q39.48,135.49,36.7,142.28ZM18.29,125c-.85,1.86-2.55,3.08-3.63,2.54-1.23-.62-1.37-2.8-.46-4.79s2.48-3,3.69-2.31C19,121,19.17,123.05,18.29,125Z" style="fill: #1d1d1b"/>
        <path d="M68,91l-.89-.83c2.18-2.89,2.36-3.3.18-5.42l-5.19-5.06c-2.18-2.16-4.66-2.38-7.33.71a14.79,14.79,0,0,0-3,7.15,12.43,12.43,0,0,1,1.53,1.06c2.11,1.84,4.24,3.68,6.36,5.51s2.56,1.47,4.9-1l.9.81q-4.14,5-8,10.4l-1-.74c2-3.29,2.27-3.82.05-5.65L50.8,93.25c-2.47-2-4.78-2-7.16,1.37a16.06,16.06,0,0,0-2.37,7.47l8.25,6c2.33,1.67,2.68,1.39,4.89-1.41l1,.72q-3.77,5.52-7.18,11.42l-1-.66c1.9-3.77,2-4.17-.38-5.79s-4.93-3.37-7.39-5.07c-2.28-1.56-2.58-1.46-4.9,1.61l-.9-.6a78.33,78.33,0,0,0,3.63-9.12l2.83,2.06a44.9,44.9,0,0,1,1-5.51,12.56,12.56,0,0,1,2.23-5.06c1.92-2.63,4.62-4,7.14-3.54.43-2.07,1-3.91,1.49-5.68a13.36,13.36,0,0,1,2.6-4.76c3.46-3.91,7.36-4.41,10.31-1.36q2.91,3,5.85,6c2,2.08,2.37,1.89,5-.37l.84.89Q72.08,86.23,68,91Z" style="fill: #1d1d1b"/>
        <path d="M83.68,49.65c6.51-4.92,13.75-4.61,16.66.14,3.65,6-.39,12.64-4.91,16.13-6.38,4.87-13.14,4.58-16.3.86C74.53,61.38,78.69,53.35,83.68,49.65Zm.24,1.67C80.78,53.7,79.61,58,82.73,61.94c3.43,4.32,8.44,5.29,12.28,2.39,2.92-2.2,4.34-5.56,1.06-10.51C93.29,49.6,88.46,47.87,83.92,51.32Z" style="fill: #1d1d1b"/>
        <path d="M130.4,44.43l-.49-1.11c3-1.63,3.2-2,2.07-4.75q-1.38-3.28-2.74-6.57c-1.15-2.79-3.38-4.08-7.18-2.33a13,13,0,0,0-5.33,5.08q2.22,4.55,4.45,9.09c1.31,2.69,1.66,2.57,4.87,1.3l.51,1.09q-5.64,2.75-11.12,5.85L114.85,51c3.23-2.17,3.48-2.45,2.16-5l-4.11-7.91c-1.28-2.49-1.74-2.42-4.91-1.1-.18-.33-.36-.66-.53-1a68.19,68.19,0,0,0,7.1-5.74l1.49,3.07c.86-1.11,1.83-2.31,3-3.7a12.43,12.43,0,0,1,4.27-3.41c4.69-2.09,8.59-.87,10.07,3l3,7.64c1.07,2.74,1.44,2.71,4.69,1.73l.41,1.13C137.74,41.22,134.05,42.76,130.4,44.43Z" style="fill: #1d1d1b"/>
        <path d="M191.81,12.52c6,.09,10.92,1.87,11,6,.06,2.93-2.13,5.35-5.49,7a28.57,28.57,0,0,1-9.87,2.71q-7.05.9-14.05,2.31l-.21-1.19c4.8-1.29,5-1.67,4.52-5.05q-1.32-8.52-2.58-17.06c-.51-3.53-1.15-3.77-6.45-3.06-.06-.4-.13-.79-.2-1.19Q177,1.33,185.61.3c4.94-.59,8.09-.26,10.24.51,2.35.86,4,2.37,4,4.56C200,9.4,195.22,11.55,191.81,12.52Zm-9.08,10.91c.39,3.08,1.48,3.67,5.58,3.15,4.5-.57,8.81-2.71,8.6-7.22-.2-4.36-4.77-6-12.32-5l-3,.41Q182.18,19.1,182.73,23.43Zm1.88-10.6c6.81-.87,9.52-2.93,9.32-6.47-.15-3-3.12-5.13-9.41-4.36a9.74,9.74,0,0,0-3.61.91c-.48.33-.63.83-.46,2.2q.5,4.08,1,8.16C182.51,13.11,183.56,13,184.61,12.83Z" style="fill: #1d1d1b"/>
        <path d="M227.93,27.09c-4.42-.32-8.86-.48-13.3-.51,0-.4,0-.8,0-1.2,3.68-.23,4-.4,4.21-3.2q.26-4.47.52-8.93c.17-2.83-.07-3-3.7-3.34,0-.36,0-.71,0-1.07a63.85,63.85,0,0,0,9.06-1.49c-.12,1.41-.27,3.29-.4,4.71,2.36-2.12,5.28-4.31,8.47-4,2.35.21,3.54,1.33,3.39,2.39a3.19,3.19,0,0,1-2.45,2.14,1.65,1.65,0,0,1-1.6-.23A4.39,4.39,0,0,0,229.53,11c-1.32-.1-3.78,1.09-5.31,3.21-.22,2.68-.45,5.37-.66,8.06-.23,2.84.05,3,4.5,3.58C228,26.29,228,26.69,227.93,27.09Z" style="fill: #1d1d1b"/>
        <path d="M262,32.93a5,5,0,0,1-2.42-1.42,3.79,3.79,0,0,1-.85-2.18c-2.59.6-5.75,1.59-7.5,1.26-4-.75-6.45-3.66-5.94-6.38.39-2.06,2.26-3.19,5.72-3.41,3.83-.25,8.6-.38,10.13-.82.07-.27.15-.55.22-.83.82-2.94-.93-5.17-4.16-5.81a4.49,4.49,0,0,0-3.14.4,8.45,8.45,0,0,0-2.28,2.43,1.79,1.79,0,0,1-2,.66c-1.15-.19-2.51-1.27-2.31-2.29.12-.59,1-1,2.38-1.36a29.63,29.63,0,0,1,9.64-1.26,10.91,10.91,0,0,1,4.91,2.28c1.81,1.75,2.36,3.41,1.72,5.55-.8,2.66-1.58,5.32-2.37,8-.55,1.9.24,2.72,1.26,3a6.38,6.38,0,0,0,2.18.08c.07.44.14.87.2,1.3C265.55,32.35,263.74,32.63,262,32.93Zm-1.26-11.49c-1.43.16-4.51.43-6,.59-2.42.27-4,.83-4.3,2.39-.48,2.22,1.59,3.65,3.43,4a10.1,10.1,0,0,0,5.09-.5Z" style="fill: #1d1d1b"/>
        <path d="M298.6,41a17.56,17.56,0,0,1-11.12,0c-6.78-2.67-9.36-8.1-7.75-12.44,1.21-3.18,4.21-5.22,9-5.81a20.69,20.69,0,0,1,10,1.27,11.76,11.76,0,0,1,4.92,3.41c.6.79.57,1.11.35,1.53-.47.92-2.32,1.08-3,.81-.28-.13-.47-.31-.9-.87a10.89,10.89,0,0,0-5.08-4.09c-3.89-1.57-8.27-.56-10,3.6-2.3,5.54,2.17,9.27,5.3,10.58a12.62,12.62,0,0,0,7.67.71Z" style="fill: #1d1d1b"/>
        <path d="M320.31,57.34l.7-1c3,1.65,3.52,1.77,5.23-.55l4.22-5.71c2.15-2.88,1.56-5.52-2.07-7.78a10.86,10.86,0,0,0-7-1.61q-2.79,4.27-5.56,8.57c-1.53,2.38-1.24,2.81,1.62,4.86l-.68,1q-5.43-3.32-11.05-6.26l.61-1c3.11,1.4,3.88,1.61,5.4-.87q5.44-8.91,10.95-17.77c1.21-1.95,1.36-2.54-2.46-4.88.19-.32.38-.65.58-1A87.2,87.2,0,0,0,330.37,27l-2.94,4.49q-2.58,3.93-5.14,7.87a16.79,16.79,0,0,1,9.65,2.26c4.45,2.89,6.06,6.82,2.84,10.91l-4.68,6c-1.74,2.27-1.49,2.69,1.14,4.9l-.76,1Q325.5,60.69,320.31,57.34Z" style="fill: #1d1d1b"/>
        <path d="M362.38,94.89l1-.74c2.48,2.65,2.87,2.92,5.3,1.09l5.81-4.31c2.47-1.82,3.08-4.27.47-7.46a14.42,14.42,0,0,0-6.48-4.11,11.05,11.05,0,0,1-1.3,1.34l-6.42,5.43c-2.09,1.77-1.87,2.3.11,5l-.94.77q-4.22-4.95-8.71-9.51l.88-.83c2.81,2.5,3.3,2.81,5.44.9l5.57-5c2.41-2.11,2.74-4.41-.06-7.25a14.69,14.69,0,0,0-6.71-3.4q-3.62,3.6-7.21,7.21c-2,2-1.81,2.42.46,5l-.88.84q-4.59-4.48-9.46-8.59l.82-.9c3.17,2.36,3.54,2.51,5.51.42l6.19-6.5c1.92-2,1.86-2.32-.57-5l.73-.79a68.35,68.35,0,0,0,7.94,4.8l-2.49,2.48a40.63,40.63,0,0,1,5.08,1.76,11.8,11.8,0,0,1,4.48,2.94c2.2,2.29,3,5.17,2.19,7.6,2,.75,3.64,1.58,5.29,2.39a13.42,13.42,0,0,1,4.24,3.38c3.28,4.12,3.19,8.17-.29,10.59l-6.83,4.82c-2.37,1.68-2.24,2-.4,5.07l-1,.69Q366.4,99.81,362.38,94.89Z" style="fill: #1d1d1b"/>
        <path d="M386,133.57a6.44,6.44,0,0,1-.57-3.1,3.88,3.88,0,0,1,1.07-2.24c-2.22-1.85-5.1-3.89-6.05-5.61-2.17-3.93-1.65-8,.73-9.37,1.83-1.06,3.95-.28,6.48,2.52,2.8,3.08,6.13,7.12,7.49,8.15l.78-.37c2.77-1.31,3.25-4.36,1.54-7.58a5.08,5.08,0,0,0-2.44-2.42,8,8,0,0,0-3.37-.28,1.94,1.94,0,0,1-1.85-1.22c-.64-1.11-.76-3,.14-3.51.53-.3,1.43.19,2.65,1.08A32.25,32.25,0,0,1,400.1,117a13.48,13.48,0,0,1,1.62,5.83c-.1,2.78-1,4.4-3,5.32l-7.6,3.4c-1.81.81-1.89,2.08-1.4,3.17a8,8,0,0,0,1.41,2l-.85,1.08Q388.15,135.63,386,133.57Zm7.79-9c-1.09-1.14-3.39-3.61-4.5-4.76-1.86-1.9-3.33-2.82-4.73-2-2,1.11-1.65,3.84-.68,5.67a12.16,12.16,0,0,0,3.84,4.06Z" style="fill: #1d1d1b"/>
        <path d="M399,168.22l1.17-.28c1.28,3.92,1.64,4.3,4.52,3.7l6.95-1.43c2.94-.59,4.52-2.89,3.23-7.78a17.31,17.31,0,0,0-4.47-7.45l-9.68,2.76c-2.86.83-2.79,1.23-1.9,5.25l-1.16.31q-2.07-7.22-4.56-14.05l1.13-.39c1.81,4.12,2.07,4.49,4.79,3.62l8.46-2.68c2.66-.83,2.64-1.38,1.69-5.24l1.06-.35a101.32,101.32,0,0,0,4.94,9.43c-1,.26-2.28.65-3.27.92,1,1.27,2.11,2.68,3.35,4.41a17.31,17.31,0,0,1,2.91,5.86c1.52,6-.22,10.4-4.33,11.07l-8.05,1.41c-2.88.52-2.89.95-2.34,5.14l-1.19.19Q400.81,175.25,399,168.22Z" style="fill: #1d1d1b"/>
      </g>
      <g>
        <path d="M105.55,368.49a13.07,13.07,0,0,0,.28-3.47c-.07-1.71-.51-2.33-2.83-3.66-1.47-.84-2.93-1.71-4.39-2.59-1.18-.73-1.37-.7-2,.35q-2.72,4.15-5.44,8.32,2.67,1.63,5.35,3.21c3.13,1.8,3.63,1.46,5.8-.77l1.29.71c-1.5,2.59-3,5.19-4.5,7.78l-1.39-.76c1-2.93,1-3.66-2.12-5.46q-2.72-1.57-5.39-3.24l-4.23,6.43c-2.05,3.12-1.71,3.58,2.28,6.36-.22.34-.43.68-.64,1q-6.42-3.8-12.65-8l.7-1c3.77,2.23,4.35,2.21,6.45-.83q4.82-7,9.61-14.05c2.11-3.1,1.79-3.48-1.2-5.9l.7-1q6.27,4.23,12.76,8c3.68,2.1,5.13,2.79,5.85,3.13-.72,1.37-2,4.09-2.83,6Z" style="fill: #1d1d1b"/>
        <path d="M130.2,381.81c5.6,2.14,8.51,7.34,6.69,12.59-2.28,6.59-9.42,7.71-14.27,5.83-6.84-2.65-8.84-8.83-6.75-13.15C118.91,380.78,126,380.22,130.2,381.81ZM129.11,383c-2.75-1.06-6.26.23-8.31,4.78-2.24,5-1.15,9.74,2.89,11.28,3,1.17,6.32.25,8.38-5.26C133.84,389.05,133.08,384.48,129.11,383Z" style="fill: #1d1d1b"/>
        <path d="M160.36,410.62a5.87,5.87,0,0,1-2.32.09c-3.28-.69-4.58-2.74-3.7-6.06q1.59-6.06,3.16-12.11l-3.24-.79c0-.18,0-.36,0-.54l1.59-.89,2.14.51c.31-1.17.61-2.33.91-3.5,1.09-.62,2.68-1.42,3.74-2.06l.67.23c-.51,1.73-1.14,4.15-1.62,6.16q2.67.57,5.35,1.07a1.26,1.26,0,0,1-.65,1.67q-2.57-.48-5.11-1-1.29,5.36-2.59,10.7c-.82,3.39.63,4.36,2,4.63a8.54,8.54,0,0,0,3.24-.07c.07.39.14.79.22,1.18Q162.22,410.23,160.36,410.62Z" style="fill: #1d1d1b"/>
        <path d="M192.09,395.44c5.89.4,10.12,4.54,9.91,10.09-.27,7-6.7,10.12-11.81,9.73-7.21-.53-10.83-5.86-10.1-10.6C181.16,397.75,187.62,395.15,192.09,395.44Zm-.71,1.41c-2.9-.2-5.83,2.06-6.46,7-.7,5.41,1.68,9.65,5.93,9.95,3.21.21,6-1.6,6.42-7.48C197.59,401.29,195.55,397.15,191.38,396.85Z" style="fill: #1d1d1b"/>
        <path d="M225.79,408.3c-1.17.91-1.58,1.76-1.56,2.28,0,.77,1,1.58,3.25,1.37,1.9-.16,4-.42,5.72-.61,3.26-.36,7.53-.06,8.05,4.16.58,4.43-5.57,9.61-12.82,10.22-6.15.53-9.52-2.21-9.66-4.73a3.25,3.25,0,0,1,1.26-2.51c1-1,3-2.51,4.16-3.37a6.32,6.32,0,0,1-4-2.07,3.33,3.33,0,0,1-.67-1.82A10.62,10.62,0,0,0,224.1,408Zm2.44.22c-4.7.43-8.67-1.81-8.77-5.86-.12-4.89,4.64-7.45,8.31-7.83a11,11,0,0,1,4.64.59,31.27,31.27,0,0,0,6.28-1.49l.33.34a5.39,5.39,0,0,1-1.49,2.52c-.71.1-2.32.15-3,.18a6.12,6.12,0,0,1,1.81,3.71C236.88,405.34,232.58,408.13,228.23,408.52Zm1.61,6.24c-2.54.24-3.66.59-4.56,1.3-1.4,1.1-2.4,2.46-2.36,3.7.09,2.37,3.22,3.95,7.36,3.55,5.11-.49,7.78-3,7.49-5.73a3.16,3.16,0,0,0-2.6-2.84A17.5,17.5,0,0,0,229.84,414.76Zm-2.45-18.51c-2.14.21-4,2.1-3.8,5.5s2.28,5.61,5,5.35c2.2-.29,4-2.1,3.69-5.57S230.05,396,227.39,396.25Z" style="fill: #1d1d1b"/>
        <path d="M268.16,407.27q-5.81,1.56-11.66,2.82c-.07-.39-.15-.79-.22-1.18,3.14-1,3.4-1.25,2.84-4q-.9-4.38-1.81-8.76c-.57-2.79-.79-2.85-3.59-2.54-.07-.35-.13-.71-.2-1.06a25.71,25.71,0,0,0,6.22-3.27c.31,1.38.73,3.23,1.05,4.61,1.17-2.6,2.56-5.4,4.86-6.06,1.71-.48,2.93.19,3.21,1.22a2.91,2.91,0,0,1-1,2.75,1.07,1.07,0,0,1-1.25.27,3.12,3.12,0,0,0-2.37-.46c-1,.27-2.42,2-3,4.42l1.77,7.89c.61,2.76.91,2.94,4.84,2.16C268,406.49,268.07,406.88,268.16,407.27Z" style="fill: #1d1d1b"/>
        <path d="M304.24,394.89a4.19,4.19,0,0,1-2.59.26,3.78,3.78,0,0,1-1.88-1.28c-1.48,1.91-3.3,4.39-4.83,5-3.49,1.4-6.83-.08-7.71-2.69-.68-2,.17-3.77,2.48-5.55,2.58-2,5.64-4.49,6.36-5.66l-.33-.79c-1.15-2.83-3.43-3.75-5.77-2.79a3.13,3.13,0,0,0-1.78,1.79,9.3,9.3,0,0,0-.27,3.12,1.38,1.38,0,0,1-1,1.45,2.16,2.16,0,0,1-2.66-1c-.2-.57.23-1.28.95-2.2a24.63,24.63,0,0,1,5.45-5.43,7.45,7.45,0,0,1,4.18-.54,5.58,5.58,0,0,1,4.23,3.56q1.63,3.83,3.25,7.64c.77,1.83,1.81,2,2.67,1.61a4.74,4.74,0,0,0,1.52-1.23l1,.87Q305.87,393,304.24,394.89Zm-7.61-8.52c-.84.89-2.75,2.67-3.68,3.51-1.52,1.42-2.34,2.61-1.8,4.11.78,2.15,3.07,2.35,4.62,1.71a7.68,7.68,0,0,0,3.37-3.11C298.39,390.71,297.39,388.25,296.63,386.37Z" style="fill: #1d1d1b"/>
        <path d="M316.24,366.88c-.19-.34-.38-.68-.56-1a11.22,11.22,0,0,1-.61-9.66,11,11,0,0,1,3.28-4.77,5.59,5.59,0,0,1,3.92-.94,1.26,1.26,0,0,1,1.05,1.1,3.63,3.63,0,0,1-.21,1.8,1.19,1.19,0,0,1-1.21.7,6.4,6.4,0,0,0-4.16.6c-2.95,1.86-.8,5.6.84,8.44l1,1.75q2.24-1.36,4.44-2.79a1.5,1.5,0,0,1,.5,1.78q-2,1.29-4.06,2.54l6.18,10.78c1.53,2.68,2.06,2.44,5.64.6l.62,1q-5.36,3.39-10.83,6.47l-.57-1.07c2.81-1.87,3-2.23,1.69-4.68q-3-5.57-6.11-11.12c-1,.6-2,1.18-3.06,1.76l-.39-.32c.11-.56.23-1.12.34-1.67Z" style="fill: #1d1d1b"/>
      </g>
      <rect x="62.19" y="163.55" width="16" height="111.55" style="fill: #fff"/>
      <rect x="350.25" y="165.63" width="16" height="110.91" style="fill: #fff"/>
      <!-- <path d="M265.57,213.78A50.22,50.22,0,0,1,215.35,264c-66.63-2.65-66.61-97.82,0-100.46A50.22,50.22,0,0,1,265.57,213.78Z" style="fill: #1d1d1b"/> -->
    </symbol>
  </defs>
  <use width="418.67" height="425.79" transform="translate(0 0)" xlink:href="#Neues_Symbol"/>
  <circle cx="215.48" cy="215.8" r="55.76" style="fill: #1d1d1b"/>
</svg>
