<svg id="Ebene_1" data-name="Ebene 1" xmlns="http://www.w3.org/2000/svg" xmlns:xlink="http://www.w3.org/1999/xlink" viewBox="0 0 486.44 486.44">
  <defs>
    <symbol id="Neues_Symbol" data-name="Neues Symbol" viewBox="0 0 486.44 486.44">
      <path d="M243.22,0C108.89,0,0,108.89,0,243.22S108.89,486.44,243.22,486.44,486.44,377.55,486.44,243.22,377.55,0,243.22,0Zm2.23,400.1A158.94,158.94,0,1,1,404.38,241.16,158.94,158.94,0,0,1,245.45,400.1Z" style="fill: #fff"/>
      <!-- <rect x="77.57" y="196.41" width="200.73" height="40.29" style="fill: #000"/> -->
      <!-- <circle cx="243.22" cy="243.22" r="195.65" fill="none" stroke="red" stroke-width="5"/> -->
      <rect x="77.57" y="196.41" width="114.73" height="26.29" style="fill: #fff"/>
      <path d="M278.8,251.63a32.72,32.72,0,0,1-32.71,32.72c-43.4-1.73-43.38-63.71,0-65.43A32.72,32.72,0,0,1,278.8,251.63Z" style="fill: #fff"/>
      <rect x="69.62" y="243.22" width="103.41" height="23.07" style="fill: #fff"/>
      <rect x="72.64" y="284.63" width="121.11" height="24.83" style="fill: #fff"/>
      <rect x="301.75" y="286.08" width="107.63" height="23.38" style="fill: #fff"/>
      <rect x="319.31" y="243.22" width="103.41" height="23.07" style="fill: #fff"/>
      <rect x="306.34" y="196.87" width="98.7" height="26.29" style="fill: #fff"/>
      <rect x="318.17" y="179.05" width="28.6" height="23.61" style="fill: #fff"/>
      <rect x="206.95" y="158.56" width="72.55" height="25.59" style="fill: #fff"/>
      <polygon points="178.68 201.84 207.05 158.56 224.64 170.1 196.27 213.38 178.68 201.84" style="fill: #fff"/>
      <polygon points="308.12 221.53 267.18 168.01 279.53 158.56 320.47 212.08 308.12 221.53" style="fill: #fff"/>
      <g>
        <path d="M41.89,184.69c-3,.26-6.38,1.34-8.33,8.61-1.59,6.07.35,8.9,2.5,9.48,2.87.79,5-2.25,8.43-7.77,4.94-7.92,8.06-10.6,11.85-9.15,4.21,1.71,5.41,8.76,3.22,17.5a59,59,0,0,1-3.76,10.31,41,41,0,0,1-6.66.49c0-.79.07-1.58.11-2.37,3.12-.81,7.32-3.08,9.12-10.19,1.26-4.9.14-8.53-2.51-9.48-3.11-1.1-5.26,1.21-8.88,7-4.28,6.94-7.13,11.11-11,10.16-3.7-.84-6.14-7.84-3.37-18.14a64.38,64.38,0,0,1,3.73-9.78c1.55.26,3.25.57,6,1C42.2,183.13,42,183.91,41.89,184.69Z" style="fill: #1d1d1b"/>
        <path d="M68.09,175.11,67,174.59c1.37-4,1.39-4.49-1.24-5.81s-5.3-2.67-7.94-4c-2.38-1.2-2.65-1.12-4.7,2.67l-.94-.45c1.09-3.64,2-7,2.6-10.13l4.79,2.59L67.94,164c2.6,1.4,3,1.05,5-2.61l1.06.59Q70.86,168.32,68.09,175.11ZM49.68,157.82c-.85,1.86-2.55,3.08-3.63,2.54-1.24-.62-1.37-2.8-.47-4.79s2.49-3,3.69-2.31S50.56,155.88,49.68,157.82Z" style="fill: #1d1d1b"/>
        <path d="M99.35,123.83l-.89-.83c2.17-2.89,2.35-3.3.17-5.42l-5.18-5.06c-2.19-2.16-4.66-2.38-7.34.71a14.79,14.79,0,0,0-3,7.15,11.08,11.08,0,0,1,1.53,1.06L91,127c2.08,1.78,2.57,1.47,4.9-1l.91.81q-4.16,5-8,10.4l-.95-.74c2-3.29,2.26-3.82,0-5.65l-5.75-4.73c-2.47-2-4.78-2-7.17,1.37a16,16,0,0,0-2.36,7.47c2.74,2,5.49,4,8.24,6,2.33,1.67,2.68,1.39,4.89-1.41l1,.72q-3.75,5.52-7.17,11.42l-1-.66c1.9-3.77,2-4.17-.37-5.79s-4.93-3.37-7.39-5.07c-2.28-1.56-2.59-1.46-4.91,1.61l-.9-.6A74.94,74.94,0,0,0,68.63,132l2.84,2.06a43.06,43.06,0,0,1,1-5.51,12.67,12.67,0,0,1,2.22-5.06c1.92-2.63,4.63-4,7.15-3.54.43-2.07,1-3.91,1.48-5.68a13.52,13.52,0,0,1,2.6-4.76c3.46-3.91,7.37-4.41,10.31-1.36l5.85,6c2,2.08,2.37,1.89,5-.37l.83.89Q103.47,119.06,99.35,123.83Z" style="fill: #1d1d1b"/>
        <path d="M115.06,82.48c6.52-4.92,13.76-4.61,16.66.14,3.65,6-.39,12.64-4.9,16.13-6.39,4.87-13.14,4.58-16.31.86C105.91,94.21,110.07,86.18,115.06,82.48Zm.25,1.67c-3.14,2.38-4.31,6.68-1.19,10.62,3.42,4.32,8.44,5.29,12.28,2.39,2.91-2.2,4.33-5.56,1.06-10.51C124.68,82.43,119.85,80.7,115.31,84.15Z" style="fill: #1d1d1b"/>
        <path d="M161.79,77.26c-.17-.37-.33-.74-.49-1.11,3-1.63,3.2-2,2.06-4.75l-2.74-6.57c-1.14-2.79-3.38-4.08-7.17-2.33a12.9,12.9,0,0,0-5.33,5.08q2.2,4.55,4.44,9.09c1.32,2.69,1.66,2.57,4.87,1.3.18.36.35.73.52,1.09q-5.65,2.75-11.13,5.85c-.19-.35-.39-.7-.58-1.06,3.22-2.17,3.47-2.45,2.15-5s-2.74-5.27-4.1-7.91c-1.29-2.49-1.75-2.42-4.92-1.1-.17-.33-.35-.66-.53-1a66.15,66.15,0,0,0,7.1-5.74c.43.89,1,2.14,1.5,3.07.86-1.11,1.82-2.31,3-3.7a12.43,12.43,0,0,1,4.27-3.41c4.68-2.09,8.58-.87,10.07,3,1,2.55,2,5.09,3,7.64,1.07,2.74,1.44,2.71,4.68,1.73l.42,1.13C169.12,74.05,165.43,75.59,161.79,77.26Z" style="fill: #1d1d1b"/>
        <path d="M223.19,45.35c6,.09,10.92,1.87,11,6,0,2.93-2.14,5.35-5.49,7a28.63,28.63,0,0,1-9.87,2.71q-7.06.9-14,2.31c-.07-.4-.15-.79-.22-1.19,4.8-1.29,5-1.67,4.52-5.05q-1.31-8.52-2.57-17.06c-.52-3.53-1.16-3.77-6.45-3.06l-.21-1.19q8.52-1.68,17.16-2.71c4.94-.59,8.08-.26,10.23.51,2.35.86,4,2.37,4,4.56C231.36,42.23,226.61,44.38,223.19,45.35Zm-9.07,10.91c.39,3.08,1.47,3.67,5.57,3.15,4.5-.57,8.81-2.71,8.6-7.22-.19-4.36-4.77-6-12.31-5l-3,.41Q213.56,51.93,214.12,56.26ZM216,45.66c6.81-.87,9.51-2.93,9.32-6.47-.16-3-3.13-5.13-9.42-4.36a9.74,9.74,0,0,0-3.6.91c-.49.33-.63.83-.47,2.2q.49,4.08,1,8.16C213.89,45.94,214.94,45.8,216,45.66Z" style="fill: #1d1d1b"/>
        <path d="M259.32,59.92c-4.43-.32-8.87-.48-13.3-.51,0-.4,0-.8,0-1.2,3.68-.23,4-.4,4.2-3.2q.26-4.47.53-8.93c.16-2.83-.07-3-3.71-3.34,0-.36,0-.71,0-1.07a63.85,63.85,0,0,0,9.06-1.49c-.13,1.41-.28,3.29-.4,4.71,2.35-2.12,5.28-4.31,8.46-4,2.35.21,3.55,1.33,3.39,2.39a3.19,3.19,0,0,1-2.44,2.14,1.67,1.67,0,0,1-1.61-.23,4.34,4.34,0,0,0-2.68-1.28c-1.32-.1-3.77,1.09-5.3,3.21q-.35,4-.67,8.06c-.23,2.84.06,3,4.5,3.58Z" style="fill: #1d1d1b"/>
        <path d="M293.34,65.76a5,5,0,0,1-2.42-1.42,3.74,3.74,0,0,1-.86-2.18c-2.59.6-5.74,1.59-7.5,1.26-4-.75-6.45-3.66-5.94-6.38.4-2.06,2.27-3.19,5.73-3.41,3.83-.25,8.59-.38,10.12-.82.07-.27.15-.55.23-.83.82-2.94-.94-5.17-4.17-5.81a4.5,4.5,0,0,0-3.14.4A8.43,8.43,0,0,0,283.12,49a1.8,1.8,0,0,1-2,.66c-1.15-.19-2.51-1.27-2.31-2.29.12-.59,1-1,2.38-1.36a29.63,29.63,0,0,1,9.64-1.26A11,11,0,0,1,295.76,47c1.81,1.75,2.35,3.41,1.71,5.55q-1.19,4-2.36,8c-.56,1.9.24,2.72,1.25,3a6.44,6.44,0,0,0,2.19.08c.07.44.13.87.2,1.3Q296,65.31,293.34,65.76Zm-1.26-11.49c-1.44.16-4.52.43-6,.59-2.43.27-4,.83-4.31,2.39-.48,2.22,1.6,3.65,3.43,4a10.15,10.15,0,0,0,5.1-.5C290.84,58.8,291.55,56.23,292.08,54.27Z" style="fill: #1d1d1b"/>
        <path d="M330,73.86a17.56,17.56,0,0,1-11.12,0c-6.78-2.67-9.36-8.1-7.75-12.44,1.2-3.18,4.21-5.22,9-5.81a20.75,20.75,0,0,1,10,1.27,11.83,11.83,0,0,1,4.92,3.41c.59.79.56,1.11.35,1.53-.48.92-2.32,1.08-2.95.81-.29-.13-.48-.31-.9-.87a10.94,10.94,0,0,0-5.08-4.09c-3.89-1.57-8.28-.56-10,3.6-2.29,5.54,2.18,9.27,5.31,10.58a12.59,12.59,0,0,0,7.66.71C329.67,73,329.83,73.44,330,73.86Z" style="fill: #1d1d1b"/>
        <path d="M351.7,90.17l.7-1c3,1.65,3.52,1.77,5.22-.55l4.23-5.71c2.14-2.88,1.56-5.52-2.07-7.78a10.88,10.88,0,0,0-7-1.61Q350,77.8,347.25,82.1c-1.54,2.38-1.25,2.81,1.61,4.86l-.67,1q-5.43-3.31-11.06-6.26c.21-.35.41-.7.61-1,3.12,1.4,3.88,1.61,5.41-.87q5.44-8.91,11-17.77c1.2-1.95,1.35-2.54-2.47-4.88.2-.32.39-.65.58-1a88.06,88.06,0,0,0,9.55,3.66c-.93,1.41-2,3-2.95,4.49q-2.56,3.93-5.14,7.87a16.83,16.83,0,0,1,9.66,2.26c4.44,2.89,6.05,6.82,2.84,10.91l-4.68,6c-1.75,2.27-1.49,2.69,1.14,4.9l-.76,1Q356.89,93.52,351.7,90.17Z" style="fill: #1d1d1b"/>
        <path d="M393.77,127.72l1-.74c2.49,2.65,2.87,2.92,5.31,1.09q2.89-2.16,5.8-4.31c2.47-1.82,3.08-4.27.48-7.46a14.42,14.42,0,0,0-6.48-4.11,12.84,12.84,0,0,1-1.3,1.34L392.1,119c-2.08,1.77-1.86,2.3.12,5-.32.25-.63.51-.94.77q-4.21-5-8.72-9.51l.89-.83c2.8,2.5,3.29,2.81,5.43.9l5.58-5c2.4-2.11,2.73-4.41-.06-7.25a14.73,14.73,0,0,0-6.72-3.4l-7.2,7.21c-2,2-1.82,2.42.45,5l-.87.84q-4.6-4.48-9.46-8.59l.81-.9c3.17,2.36,3.54,2.51,5.52.42s4.12-4.34,6.19-6.5c1.91-2,1.86-2.32-.58-5l.74-.79a67.52,67.52,0,0,0,7.94,4.8l-2.49,2.48a40.63,40.63,0,0,1,5.08,1.76,11.77,11.77,0,0,1,4.47,2.94c2.2,2.29,3.05,5.17,2.19,7.6,1.95.75,3.65,1.58,5.29,2.39a13.21,13.21,0,0,1,4.24,3.38c3.29,4.12,3.19,8.17-.29,10.59l-6.83,4.82c-2.37,1.68-2.23,2-.4,5.07l-1,.69Q397.78,132.64,393.77,127.72Z" style="fill: #1d1d1b"/>
        <path d="M417.38,166.4a6.32,6.32,0,0,1-.57-3.1,3.93,3.93,0,0,1,1.06-2.24c-2.22-1.85-5.1-3.89-6.05-5.61-2.16-3.93-1.65-7.95.74-9.37,1.82-1.06,3.94-.28,6.47,2.52,2.81,3.08,6.13,7.12,7.5,8.15l.78-.37c2.77-1.31,3.25-4.36,1.54-7.58a5.16,5.16,0,0,0-2.44-2.42,8,8,0,0,0-3.38-.28,2,2,0,0,1-1.85-1.22c-.64-1.11-.75-3,.15-3.51.52-.3,1.43.19,2.64,1.08a32.2,32.2,0,0,1,7.52,7.37,13.4,13.4,0,0,1,1.61,5.84c-.09,2.78-1,4.4-3,5.32l-7.6,3.4c-1.8.81-1.88,2.08-1.39,3.17a7.78,7.78,0,0,0,1.41,2l-.85,1.08C420.24,169.18,418.81,167.77,417.38,166.4Zm7.79-9c-1.1-1.14-3.39-3.61-4.51-4.76-1.85-1.9-3.32-2.82-4.72-2-2,1.11-1.65,3.84-.69,5.67a12.09,12.09,0,0,0,3.85,4.06Z" style="fill: #1d1d1b"/>
        <path d="M430.36,201.05l1.17-.28c1.27,3.92,1.64,4.3,4.51,3.7L443,203c2.94-.59,4.52-2.89,3.23-7.78a17.3,17.3,0,0,0-4.46-7.45l-9.69,2.76c-2.86.83-2.79,1.23-1.89,5.25l-1.17.31q-2.06-7.22-4.56-14l1.14-.39c1.8,4.12,2.07,4.49,4.78,3.62l8.46-2.68c2.67-.83,2.65-1.38,1.69-5.24l1.06-.35a106.36,106.36,0,0,0,4.94,9.43c-.95.26-2.27.65-3.27.92,1,1.27,2.11,2.68,3.36,4.41a17.1,17.1,0,0,1,2.9,5.86c1.52,6.05-.22,10.4-4.32,11.07l-8.05,1.41c-2.89.52-2.9,1-2.35,5.14l-1.19.19Q432.19,208.08,430.36,201.05Z" style="fill: #1d1d1b"/>
      </g>
      <rect x="18.31" y="251.63" width="39.83" height="27.35" style="fill: #1d1d1b"/>
      <rect x="422.72" y="251.63" width="39.83" height="27.35" style="fill: #1d1d1b"/>
      <g>
        <path d="M136.94,401.32a12.65,12.65,0,0,0,.27-3.47c-.06-1.71-.51-2.33-2.82-3.66-1.47-.84-2.94-1.71-4.39-2.59-1.19-.73-1.38-.7-2.06.35q-2.7,4.16-5.43,8.32,2.65,1.64,5.35,3.21c3.13,1.8,3.62,1.46,5.79-.77l1.3.71-4.5,7.78-1.39-.76c.95-2.93,1-3.66-2.13-5.46-1.81-1.05-3.6-2.13-5.39-3.24q-2.1,3.22-4.22,6.43c-2,3.12-1.72,3.58,2.27,6.36-.21.34-.42.68-.64,1q-6.42-3.8-12.65-8c.24-.32.47-.65.7-1,3.77,2.23,4.36,2.21,6.45-.83q4.83-7,9.62-14.05c2.11-3.1,1.78-3.48-1.2-5.9l.69-1q6.27,4.23,12.76,8c3.69,2.1,5.13,2.79,5.85,3.13-.71,1.37-2,4.09-2.82,6Z" style="fill: #1d1d1b"/>
        <path d="M161.59,414.64c5.59,2.14,8.51,7.34,6.68,12.59-2.28,6.59-9.41,7.71-14.26,5.82-6.85-2.64-8.84-8.82-6.75-13.14C150.3,413.61,157.33,413.05,161.59,414.64Zm-1.1,1.15c-2.75-1.06-6.25.23-8.3,4.78-2.25,5-1.16,9.74,2.88,11.28,3.05,1.17,6.32.25,8.39-5.26C165.22,421.88,164.46,417.31,160.49,415.79Z" style="fill: #1d1d1b"/>
        <path d="M191.75,443.45a5.92,5.92,0,0,1-2.33.09c-3.27-.69-4.57-2.74-3.69-6.06q1.59-6.06,3.16-12.11l-3.25-.79c0-.18,0-.36,0-.54l1.59-.89,2.15.51.9-3.5c1.09-.62,2.68-1.42,3.75-2.06l.66.23c-.51,1.73-1.13,4.15-1.62,6.16,1.78.38,3.57.74,5.35,1.07a1.25,1.25,0,0,1-.65,1.67c-1.7-.32-3.41-.66-5.11-1q-1.29,5.35-2.59,10.7c-.82,3.39.64,4.36,2,4.63a8.49,8.49,0,0,0,3.23-.07c.08.39.15.79.22,1.18C194.21,442.92,193,443.19,191.75,443.45Z" style="fill: #1d1d1b"/>
        <path d="M223.47,428.27c5.89.4,10.13,4.54,9.92,10.09-.28,7-6.7,10.12-11.82,9.73-7.2-.53-10.82-5.86-10.09-10.6C212.55,430.58,219,428,223.47,428.27Zm-.71,1.41c-2.9-.2-5.83,2.06-6.46,7-.7,5.41,1.68,9.65,5.93,9.95,3.21.21,6-1.6,6.42-7.48C229,434.12,226.94,430,222.76,429.68Z" style="fill: #1d1d1b"/>
        <path d="M257.17,441.13c-1.16.91-1.58,1.76-1.55,2.28,0,.77.94,1.58,3.25,1.37,1.89-.16,4-.42,5.71-.61,3.26-.36,7.54-.06,8.05,4.16.58,4.43-5.56,9.61-12.82,10.22-6.15.52-9.52-2.21-9.66-4.73a3.31,3.31,0,0,1,1.26-2.52c1-.95,3-2.5,4.16-3.36a6.32,6.32,0,0,1-3.95-2.07,3.25,3.25,0,0,1-.67-1.82,10.68,10.68,0,0,0,4.54-3.26Zm2.44.22c-4.7.43-8.66-1.82-8.77-5.86-.11-4.89,4.64-7.45,8.31-7.83a11,11,0,0,1,4.64.59,31.1,31.1,0,0,0,6.28-1.49l.33.34a5.45,5.45,0,0,1-1.48,2.52c-.72.1-2.32.15-3,.18a6.05,6.05,0,0,1,1.8,3.71C268.26,438.17,264,441,259.61,441.35Zm1.62,6.24c-2.54.24-3.66.59-4.57,1.3-1.4,1.1-2.4,2.46-2.35,3.7.08,2.37,3.21,4,7.35,3.55,5.12-.49,7.79-3,7.49-5.73a3.15,3.15,0,0,0-2.6-2.84A17.43,17.43,0,0,0,261.23,447.59Zm-2.46-18.51c-2.13.2-3.95,2.1-3.79,5.5s2.28,5.61,5,5.35c2.21-.29,4-2.1,3.7-5.57S261.43,428.83,258.77,429.08Z" style="fill: #1d1d1b"/>
        <path d="M299.55,440.1q-5.81,1.56-11.66,2.82c-.08-.39-.15-.79-.23-1.18,3.15-.95,3.4-1.25,2.84-4L288.7,429c-.58-2.79-.8-2.85-3.59-2.54l-.21-1.06a26.32,26.32,0,0,0,6.23-3.27l1,4.61c1.18-2.6,2.56-5.4,4.87-6.06,1.7-.48,2.92.19,3.21,1.22a2.9,2.9,0,0,1-1,2.75,1.05,1.05,0,0,1-1.24.27,3.16,3.16,0,0,0-2.38-.46c-1,.27-2.41,2-3,4.42.6,2.63,1.18,5.26,1.77,7.89s.91,2.94,4.84,2.16C299.36,439.32,299.45,439.71,299.55,440.1Z" style="fill: #1d1d1b"/>
        <path d="M335.62,427.72A4.17,4.17,0,0,1,333,428a3.81,3.81,0,0,1-1.89-1.28c-1.48,1.91-3.3,4.39-4.82,5-3.5,1.4-6.84-.08-7.72-2.69-.67-2,.17-3.77,2.48-5.55,2.58-2,5.65-4.49,6.36-5.66-.11-.26-.22-.53-.32-.79-1.15-2.83-3.43-3.75-5.77-2.79a3.1,3.1,0,0,0-1.78,1.79,9,9,0,0,0-.27,3.12,1.4,1.4,0,0,1-1,1.45,2.17,2.17,0,0,1-2.67-1c-.19-.57.23-1.28.95-2.2a24.93,24.93,0,0,1,5.46-5.43,7.44,7.44,0,0,1,4.18-.54,5.6,5.6,0,0,1,4.23,3.56l3.24,7.64c.77,1.83,1.82,2,2.67,1.61a4.74,4.74,0,0,0,1.52-1.23l1,.87C337.79,425.15,336.72,426.44,335.62,427.72ZM328,419.2c-.84.89-2.75,2.67-3.69,3.51-1.52,1.42-2.34,2.61-1.79,4.11.77,2.15,3.07,2.35,4.62,1.71a7.73,7.73,0,0,0,3.37-3.11C329.77,423.54,328.77,421.07,328,419.2Z" style="fill: #1d1d1b"/>
        <path d="M347.62,399.71c-.18-.34-.37-.68-.56-1a11.26,11.26,0,0,1-.61-9.66,11,11,0,0,1,3.29-4.77,5.56,5.56,0,0,1,3.91-.94,1.25,1.25,0,0,1,1.05,1.1,3.42,3.42,0,0,1-.21,1.8,1.18,1.18,0,0,1-1.2.7,6.38,6.38,0,0,0-4.16.6c-3,1.86-.8,5.6.83,8.44l1,1.75q2.23-1.36,4.45-2.79a1.51,1.51,0,0,1,.49,1.78c-1.34.86-2.7,1.71-4.06,2.54Q355,404.63,358,410c1.53,2.68,2.07,2.44,5.64.6.21.34.42.68.62,1-3.56,2.26-7.18,4.42-10.83,6.47l-.56-1.07c2.8-1.87,3-2.23,1.69-4.68q-3-5.56-6.12-11.12c-1,.6-2,1.18-3.05,1.76l-.4-.32c.12-.56.23-1.12.34-1.67C346.12,400.59,346.87,400.15,347.62,399.71Z" style="fill: #1d1d1b"/>
      </g>
      <path d="M248.06,172.21a79.43,79.43,0,1,0,79.43,79.42A79.42,79.42,0,0,0,248.06,172.21Zm0,143a63.55,63.55,0,1,1,63.55-63.55A63.54,63.54,0,0,1,248.06,315.18Z" style="fill: #fff"/>
    </symbol>
  </defs>
  <use width="486.44" height="486.44" xlink:href="#Neues_Symbol"/>
</svg>
